<svg id="Layer_1" data-name="Layer 1" xmlns="http://www.w3.org/2000/svg" viewBox="0 0 192 192"><defs><style>.cls-1{fill:#f07142;}</style></defs><title>logo</title><path class="cls-1" d="M.08,91.31c.42-18.08-.7-40.82.5-63.54C1.28,14.44,14.5,1.09,28,.71,71.7-.54,115.39.23,159.09.28c20.55,0,32.2,15.07,32.46,34,.57,40.8.65,81.63,0,122.43-.36,21.88-12.59,34.4-34.67,34.81-40.82.77-81.67.59-122.5.06-20-.26-34.43-12.75-34.31-34.38C.17,136.76.08,116.35.08,91.31Zm169.68,4.75h0c0-12-.18-24,.08-36,.12-5.46-1.76-9-6.61-11.69q-30.89-17.26-61.49-35.07c-4.42-2.57-8-2.55-12.42,0Q58.73,31.12,27.85,48.42C23.2,51,21.16,54.36,21.18,59.57q.14,36,0,71.95c0,5.18,1.84,8.67,6.49,11.28q31.1,17.44,61.95,35.34c4.21,2.44,7.71,2.41,11.92,0q31.08-18,62.4-35.63c4.06-2.29,5.91-5.27,5.86-9.91C169.66,120.4,169.75,108.23,169.75,96.06Z" transform="translate(0 0)"/><path class="cls-1" d="M101.12,164.43c0-21.44,0-42.54-.06-63.63,0-2.58,1.17-3.81,3.19-5q24.73-14,49.38-28.07c3.25-1.87,4.24-1.4,4.22,2.4-.08,20,0,40.06,0,60.09,0,1.71-.21,3-1.94,4q-26.62,15-53.18,30C102.48,164.43,102.08,164.35,101.12,164.43Z" transform="translate(0 0)"/><path class="cls-1" d="M33.28,64.73C52.11,75.61,69.88,85.9,87.67,96.15A4,4,0,0,1,90,100c0,21.1,0,42.2,0,63.17-1.93,1-3-.26-4.15-.91q-24.64-14.15-49.23-28.39c-1.69-1-3.34-1.79-3.33-4.32C33.32,108.28,33.28,87,33.28,64.73Z" transform="translate(0 0)"/><path class="cls-1" d="M152.19,56.12C133.69,66.57,115.8,76.65,98,86.81c-1.86,1.06-3.28.7-4.93-.26C77,77.22,60.86,68,44.85,58.57c-4.4-2.59-4.28-4,.06-6.5C60.61,43.19,76.34,34.36,92,25.43,94.5,24,96.62,23.32,99.42,25c16.79,9.86,33.66,19.56,50.5,29.33A24.24,24.24,0,0,1,152.19,56.12Z" transform="translate(0 0)"/></svg>